<mxfile host="app.diagrams.net" agent="Mozilla/5.0 (X11; Linux x86_64; rv:128.0) Gecko/20100101 Firefox/128.0" version="24.8.0">
  <diagram id="prtHgNgQTEPvFCAcTncT" name="Page-1">
    <mxGraphModel dx="954" dy="636" grid="1" gridSize="10" guides="1" tooltips="1" connect="1" arrows="1" fold="1" page="1" pageScale="1" pageWidth="827" pageHeight="1169" math="0" shadow="0">
      <root>
        <mxCell id="0" />
        <mxCell id="1" parent="0" />
        <mxCell id="2Krlndj7j0bMPt4llisJ-2" value="Web server container" style="swimlane;whiteSpace=wrap;html=1;" parent="1" vertex="1">
          <mxGeometry x="1020" y="80" width="290" height="420" as="geometry" />
        </mxCell>
        <mxCell id="2Krlndj7j0bMPt4llisJ-3" value="Apache2" style="swimlane;whiteSpace=wrap;html=1;" parent="2Krlndj7j0bMPt4llisJ-2" vertex="1">
          <mxGeometry x="50" y="70" width="190" height="130" as="geometry">
            <mxRectangle x="70" y="70" width="100" height="30" as="alternateBounds" />
          </mxGeometry>
        </mxCell>
        <mxCell id="2Krlndj7j0bMPt4llisJ-6" value="&lt;ul&gt;&lt;li&gt;Website&lt;/li&gt;&lt;li&gt;Apache status page&lt;br&gt;&lt;/li&gt;&lt;/ul&gt;" style="text;html=1;align=left;verticalAlign=middle;resizable=0;points=[];autosize=1;strokeColor=none;fillColor=none;" parent="2Krlndj7j0bMPt4llisJ-3" vertex="1">
          <mxGeometry x="10" y="50" width="170" height="70" as="geometry" />
        </mxCell>
        <mxCell id="2Krlndj7j0bMPt4llisJ-7" value="172.16.69.10 : 80" style="text;html=1;align=center;verticalAlign=middle;resizable=0;points=[];autosize=1;strokeColor=none;fillColor=none;" parent="2Krlndj7j0bMPt4llisJ-3" vertex="1">
          <mxGeometry x="35" y="30" width="120" height="30" as="geometry" />
        </mxCell>
        <mxCell id="2Krlndj7j0bMPt4llisJ-5" value="Flask API" style="swimlane;whiteSpace=wrap;html=1;" parent="2Krlndj7j0bMPt4llisJ-2" vertex="1">
          <mxGeometry x="50" y="240" width="190" height="130" as="geometry" />
        </mxCell>
        <mxCell id="2Krlndj7j0bMPt4llisJ-8" value="172.16.69.10 : 8081" style="text;html=1;align=center;verticalAlign=middle;resizable=0;points=[];autosize=1;strokeColor=none;fillColor=none;" parent="2Krlndj7j0bMPt4llisJ-5" vertex="1">
          <mxGeometry x="30" y="30" width="130" height="30" as="geometry" />
        </mxCell>
        <mxCell id="2Krlndj7j0bMPt4llisJ-9" value="&lt;ul&gt;&lt;li&gt;System status page&lt;br&gt;&lt;/li&gt;&lt;/ul&gt;" style="text;html=1;align=left;verticalAlign=middle;resizable=0;points=[];autosize=1;strokeColor=none;fillColor=none;" parent="2Krlndj7j0bMPt4llisJ-5" vertex="1">
          <mxGeometry x="10" y="60" width="170" height="50" as="geometry" />
        </mxCell>
        <mxCell id="2Krlndj7j0bMPt4llisJ-10" value="Grafana container" style="swimlane;whiteSpace=wrap;html=1;" parent="1" vertex="1">
          <mxGeometry x="510" y="80" width="190" height="70" as="geometry">
            <mxRectangle x="70" y="70" width="100" height="30" as="alternateBounds" />
          </mxGeometry>
        </mxCell>
        <mxCell id="2Krlndj7j0bMPt4llisJ-12" value="172.16.69.40 : 3000" style="text;html=1;align=center;verticalAlign=middle;resizable=0;points=[];autosize=1;strokeColor=none;fillColor=none;" parent="2Krlndj7j0bMPt4llisJ-10" vertex="1">
          <mxGeometry x="30" y="30" width="130" height="30" as="geometry" />
        </mxCell>
        <mxCell id="2Krlndj7j0bMPt4llisJ-13" value="MariaDB container" style="swimlane;whiteSpace=wrap;html=1;" parent="1" vertex="1">
          <mxGeometry x="510" y="240" width="190" height="70" as="geometry">
            <mxRectangle x="70" y="70" width="100" height="30" as="alternateBounds" />
          </mxGeometry>
        </mxCell>
        <mxCell id="2Krlndj7j0bMPt4llisJ-14" value="172.16.69.20 : 3306" style="text;html=1;align=center;verticalAlign=middle;resizable=0;points=[];autosize=1;strokeColor=none;fillColor=none;" parent="2Krlndj7j0bMPt4llisJ-13" vertex="1">
          <mxGeometry x="30" y="30" width="130" height="30" as="geometry" />
        </mxCell>
        <mxCell id="2Krlndj7j0bMPt4llisJ-15" value="Monitoring Agent container" style="swimlane;whiteSpace=wrap;html=1;" parent="1" vertex="1">
          <mxGeometry x="510" y="400" width="190" height="70" as="geometry">
            <mxRectangle x="70" y="70" width="100" height="30" as="alternateBounds" />
          </mxGeometry>
        </mxCell>
        <mxCell id="2Krlndj7j0bMPt4llisJ-16" value="Python script" style="text;html=1;align=center;verticalAlign=middle;resizable=0;points=[];autosize=1;strokeColor=none;fillColor=none;" parent="2Krlndj7j0bMPt4llisJ-15" vertex="1">
          <mxGeometry x="50" y="30" width="90" height="30" as="geometry" />
        </mxCell>
        <mxCell id="2Krlndj7j0bMPt4llisJ-17" value="" style="endArrow=classic;startArrow=classic;html=1;rounded=0;" parent="1" edge="1">
          <mxGeometry width="50" height="50" relative="1" as="geometry">
            <mxPoint x="710" y="420" as="sourcePoint" />
            <mxPoint x="1040" y="230" as="targetPoint" />
          </mxGeometry>
        </mxCell>
        <mxCell id="2Krlndj7j0bMPt4llisJ-18" value="" style="endArrow=classic;html=1;rounded=0;" parent="1" edge="1">
          <mxGeometry width="50" height="50" relative="1" as="geometry">
            <mxPoint x="604.64" y="390" as="sourcePoint" />
            <mxPoint x="604.64" y="320" as="targetPoint" />
          </mxGeometry>
        </mxCell>
        <mxCell id="2Krlndj7j0bMPt4llisJ-19" value="" style="endArrow=classic;html=1;rounded=0;" parent="1" edge="1">
          <mxGeometry width="50" height="50" relative="1" as="geometry">
            <mxPoint x="604.47" y="230" as="sourcePoint" />
            <mxPoint x="604.47" y="160" as="targetPoint" />
          </mxGeometry>
        </mxCell>
        <mxCell id="2Krlndj7j0bMPt4llisJ-20" value="Docker compose" style="swimlane;whiteSpace=wrap;html=1;" parent="1" vertex="1">
          <mxGeometry x="460" y="10" width="900" height="540" as="geometry" />
        </mxCell>
        <mxCell id="_yo-jGWR1Rh-Ail3NR9a-1" value="" style="endArrow=classic;startArrow=classic;html=1;rounded=0;" edge="1" parent="1">
          <mxGeometry width="50" height="50" relative="1" as="geometry">
            <mxPoint x="710" y="450" as="sourcePoint" />
            <mxPoint x="1040" y="400" as="targetPoint" />
          </mxGeometry>
        </mxCell>
      </root>
    </mxGraphModel>
  </diagram>
</mxfile>
